<?xml version="1.0" encoding="utf-8"?>
<!-- Generator: Adobe Illustrator 16.0.3, SVG Export Plug-In . SVG Version: 6.00 Build 0)  -->
<!DOCTYPE svg PUBLIC "-//W3C//DTD SVG 1.0//EN" "http://www.w3.org/TR/2001/REC-SVG-20010904/DTD/svg10.dtd">
<svg version="1.0" id="Layer_1" xmlns="http://www.w3.org/2000/svg" xmlns:xlink="http://www.w3.org/1999/xlink" x="0px" y="0px"
	 width="101.083px" height="26.654px" viewBox="0 0 101.083 26.654" enable-background="new 0 0 101.083 26.654"
	 xml:space="preserve">
<g display="none">
	<path display="inline" d="M62.458,57.996h0.967v3.812h-0.596v-3.115l-1.396,2.776h-0.329l-1.394-2.777v3.116h-0.596v-3.812h0.971
		l1.188,2.469L62.458,57.996z M66.2,59.133c0.211,0.17,0.317,0.438,0.317,0.806v1.869h-0.506v-0.442l-0.052,0.062
		c-0.237,0.283-0.562,0.428-0.959,0.428c-0.297,0-0.547-0.085-0.742-0.253c-0.192-0.167-0.291-0.395-0.291-0.674
		c0-0.276,0.104-0.487,0.31-0.626c0.207-0.14,0.494-0.211,0.853-0.211h0.832v-0.14c0-0.409-0.229-0.615-0.683-0.615
		c-0.271,0-0.555,0.097-0.846,0.287l-0.244-0.343c0.347-0.267,0.742-0.401,1.179-0.401C65.706,58.877,65.986,58.963,66.2,59.133z
		 M65.956,60.462h-0.728c-0.463,0-0.698,0.15-0.698,0.45c0,0.152,0.061,0.271,0.18,0.354c0.115,0.077,0.274,0.117,0.479,0.117
		s0.383-0.058,0.535-0.172c0.153-0.115,0.231-0.273,0.231-0.472V60.462L65.956,60.462z M69.678,58.921h-0.717l-1.237,1.294v-2.456
		h-0.562v4.049h0.562V60.99l0.481-0.488l0.021,0.03l0.864,1.275h0.684l-1.184-1.75L69.678,58.921z M72.784,60.209v0.396h-2.312
		l0.002,0.03c0.017,0.223,0.118,0.403,0.306,0.539c0.186,0.135,0.399,0.202,0.637,0.202c0.362,0,0.646-0.111,0.842-0.334
		l0.313,0.343c-0.308,0.309-0.711,0.465-1.198,0.465c-0.403,0-0.752-0.137-1.035-0.404c-0.281-0.269-0.426-0.633-0.426-1.086
		c0-0.451,0.146-0.815,0.435-1.082c0.289-0.268,0.633-0.401,1.022-0.401c0.394,0,0.729,0.119,1.002,0.354
		C72.645,59.466,72.784,59.795,72.784,60.209z M72.222,60.148c0-0.256-0.081-0.455-0.243-0.593
		c-0.159-0.138-0.359-0.206-0.592-0.206c-0.233,0-0.444,0.071-0.629,0.213c-0.188,0.146-0.283,0.341-0.283,0.586v0.028h1.746
		L72.222,60.148L72.222,60.148z M75.602,61.139l-0.9-2.22h-0.601c1.176,2.917,1.176,2.976,1.176,2.999
		c0,0.125-0.046,0.241-0.138,0.347s-0.213,0.158-0.359,0.158c-0.135,0-0.268-0.055-0.394-0.165l-0.253,0.451
		c0.207,0.18,0.438,0.271,0.693,0.271c0.186,0,0.355-0.056,0.51-0.16c0.15-0.106,0.271-0.256,0.354-0.441l1.41-3.458h-0.6
		L75.602,61.139z M79.749,59.309c0.289,0.284,0.437,0.642,0.437,1.056s-0.146,0.771-0.437,1.057
		c-0.287,0.286-0.652,0.433-1.086,0.433s-0.8-0.146-1.086-0.433c-0.289-0.287-0.436-0.643-0.436-1.057s0.146-0.771,0.436-1.056
		c0.286-0.287,0.652-0.433,1.086-0.433C79.097,58.877,79.461,59.021,79.749,59.309z M79.622,60.363c0-0.289-0.092-0.53-0.271-0.715
		c-0.183-0.185-0.411-0.275-0.688-0.275c-0.274,0-0.509,0.093-0.688,0.275c-0.182,0.184-0.271,0.426-0.271,0.715
		c0,0.291,0.092,0.531,0.271,0.716c0.18,0.186,0.41,0.276,0.688,0.276c0.275,0,0.508-0.093,0.688-0.276
		C79.532,60.896,79.622,60.654,79.622,60.363z M82.727,60.485c0,0.28-0.084,0.497-0.248,0.646c-0.163,0.146-0.357,0.221-0.578,0.221
		c-0.467,0-0.705-0.284-0.705-0.844V58.92h-0.561v1.774c0,0.375,0.1,0.664,0.299,0.858c0.197,0.197,0.461,0.298,0.783,0.298
		c0.197,0,0.384-0.053,0.554-0.15c0.17-0.102,0.306-0.24,0.401-0.415l0.055-0.101v0.621h0.563V58.92h-0.563V60.485L82.727,60.485z
		 M84.98,59.055c-0.168,0.114-0.301,0.264-0.397,0.442L84.527,59.6v-0.68h-0.562v2.887h0.562v-1.231c0-0.342,0.08-0.617,0.239-0.82
		c0.16-0.206,0.4-0.312,0.715-0.312h0.004l-0.005-0.565C85.306,58.887,85.138,58.945,84.98,59.055z M90.734,58.877
		c-0.425,0-0.782,0.188-1.067,0.563l-0.028,0.04l-0.021-0.046c-0.162-0.376-0.464-0.559-0.92-0.559
		c-0.199,0-0.391,0.051-0.563,0.149c-0.172,0.101-0.305,0.238-0.391,0.414l-0.057,0.111v-0.63h-0.563v2.888h0.563v-1.563
		c0-0.281,0.084-0.498,0.248-0.646c0.164-0.146,0.357-0.222,0.579-0.222c0.223,0,0.389,0.069,0.491,0.208
		c0.104,0.137,0.156,0.35,0.156,0.635v1.588h0.563v-1.608c0.007-0.267,0.094-0.472,0.257-0.611c0.161-0.139,0.353-0.209,0.569-0.209
		c0.468,0,0.703,0.283,0.703,0.845v1.586h0.562v-1.774c0-0.373-0.103-0.662-0.299-0.859C91.32,58.977,91.057,58.877,90.734,58.877z
		 M94.471,59.133c0.211,0.17,0.318,0.438,0.318,0.806v1.869h-0.506v-0.442l-0.054,0.062c-0.235,0.283-0.56,0.428-0.957,0.428
		c-0.298,0-0.548-0.085-0.741-0.253c-0.193-0.167-0.291-0.395-0.291-0.674c0-0.276,0.104-0.487,0.309-0.626
		c0.207-0.14,0.494-0.211,0.853-0.211h0.831v-0.14c0-0.409-0.229-0.615-0.682-0.615c-0.27,0-0.555,0.097-0.846,0.287l-0.244-0.343
		c0.346-0.267,0.742-0.401,1.178-0.401C93.978,58.877,94.258,58.963,94.471,59.133z M94.228,60.462H93.5
		c-0.463,0-0.697,0.15-0.697,0.45c0,0.152,0.06,0.271,0.178,0.354c0.115,0.077,0.275,0.117,0.479,0.117
		c0.205,0,0.383-0.058,0.535-0.172c0.155-0.115,0.233-0.273,0.233-0.472V60.462z M96.448,59.055
		c-0.166,0.113-0.301,0.264-0.396,0.442L95.997,59.6v-0.68h-0.562v2.887h0.562v-1.231c0-0.342,0.08-0.617,0.237-0.82
		c0.16-0.206,0.399-0.312,0.716-0.312h0.004l-0.004-0.565C96.773,58.887,96.605,58.945,96.448,59.055z M99.87,58.921h-0.717
		l-1.236,1.294v-2.456h-0.562v4.049h0.562V60.99l0.481-0.488l0.021,0.03l0.865,1.275h0.682l-1.182-1.75L99.87,58.921z"/>
	<path display="inline" d="M20.887,58.59c0.139-0.121,0.276-0.246,0.41-0.379c1.538-1.527,2.307-3.397,2.307-5.608
		c0-2.21-0.768-4.081-2.307-5.608c-1.539-1.529-3.461-2.292-5.769-2.292c-2.307,0-4.229,0.764-5.768,2.292
		c-1.539,1.527-2.308,3.397-2.308,5.608s0.769,4.081,2.308,5.608c1.538,1.529,3.46,2.293,5.768,2.293
		c1.108,0,2.126-0.178,3.057-0.53c2.214,1.793,5.738,1.862,5.738,1.862C22.62,61.228,21.398,59.453,20.887,58.59z M20.158,56.528
		h-9.261c-0.361,0-0.653-0.292-0.653-0.652c0-0.358,0.292-0.651,0.653-0.651h9.261c0.36,0,0.652,0.293,0.652,0.651
		C20.811,56.236,20.519,56.528,20.158,56.528z M20.158,53.254h-9.261c-0.361,0-0.653-0.292-0.653-0.651s0.292-0.651,0.653-0.651
		h9.261c0.36,0,0.652,0.292,0.652,0.651S20.519,53.254,20.158,53.254z M20.158,49.981h-9.261c-0.361,0-0.653-0.292-0.653-0.652
		c0-0.361,0.292-0.653,0.653-0.653h9.261c0.36,0,0.652,0.292,0.652,0.653C20.811,49.689,20.519,49.981,20.158,49.981z
		 M13.542,40.139c0-1.724,0.889-3.119,1.985-3.119c1.096,0,1.985,1.396,1.985,3.119c0,1.723-0.889,3.119-1.985,3.119
		C14.431,43.259,13.542,41.862,13.542,40.139z M7.127,42.167c-0.96-1.663-0.88-3.505,0.178-4.116
		c1.058-0.609,2.693,0.242,3.653,1.904c0.959,1.663,0.88,3.505-0.178,4.115C9.723,44.682,8.087,43.83,7.127,42.167z M7.004,47.916
		c-0.611,1.059-2.454,1.139-4.116,0.178c-1.663-0.96-2.515-2.596-1.904-3.652c0.611-1.059,2.454-1.139,4.116-0.178
		C6.763,45.222,7.615,46.858,7.004,47.916z M6.269,52.686c0,1.098-1.396,1.984-3.12,1.984c-1.723,0-3.12-0.89-3.12-1.984
		c0-1.096,1.397-1.983,3.12-1.983C4.872,50.701,6.269,51.59,6.269,52.686z M27.578,52.977h1.956c1.619,0,2.82-0.312,3.603-0.931
		c0.783-0.621,1.174-1.599,1.174-2.935c0-1.335-0.383-2.322-1.151-2.964s-1.987-0.962-3.658-0.962h-3.785v11.021h1.861V52.977z
		 M27.578,46.874h1.892c1.009,0,1.75,0.158,2.224,0.474c0.473,0.314,0.71,0.854,0.71,1.616c0,0.764-0.187,1.341-0.56,1.734
		c-0.373,0.395-1.075,0.592-2.105,0.592h-2.161V46.874z M40.453,55.949c0.521-0.259,0.949-0.63,1.285-1.112v1.372h1.767v-8.39
		h-1.767v1.451c-0.715-1.052-1.624-1.577-2.728-1.577s-2.061,0.39-2.87,1.167c-0.81,0.778-1.214,1.819-1.214,3.122
		c0,1.306,0.394,2.354,1.183,3.153c0.788,0.8,1.713,1.198,2.775,1.198C39.409,56.335,39.932,56.207,40.453,55.949z M36.692,52.054
		c0-0.805,0.252-1.475,0.757-2.011c0.505-0.536,1.109-0.804,1.814-0.804c0.704,0,1.298,0.268,1.782,0.804
		c0.483,0.537,0.726,1.204,0.726,2.003c0,0.8-0.242,1.453-0.726,1.963c-0.484,0.511-1.072,0.766-1.766,0.766
		c-0.694,0-1.298-0.252-1.814-0.757C36.949,53.513,36.692,52.858,36.692,52.054z M58.09,47.82l-2.9,8.39h-2.02l-1.986-5.74
		l-1.987,5.74h-2.018l-2.902-8.39h1.83l2.082,6.339l2.082-6.339H52.1l2.081,6.339l2.082-6.339H58.09z M67.709,49.113
		c0-1.334-0.385-2.322-1.15-2.964c-0.77-0.642-1.988-0.962-3.659-0.962h-3.784v11.021h1.861v-3.231h1.954
		c1.618,0,2.819-0.312,3.604-0.931C67.316,51.426,67.709,50.448,67.709,49.113z M65.241,50.697
		c-0.373,0.396-1.074,0.593-2.104,0.593h-2.16v-4.415h1.893c1.01,0,1.75,0.158,2.225,0.474c0.474,0.314,0.709,0.854,0.709,1.616
		C65.803,49.728,65.613,50.304,65.241,50.697z M73.258,49.476c-0.871,0-1.528,0.283-1.971,0.853
		c-0.441,0.567-0.662,1.329-0.662,2.286v3.596h-1.768V47.82h1.768v1.688c0.283-0.524,0.67-0.957,1.16-1.293
		c0.486-0.336,1.006-0.51,1.553-0.521l0.016,1.782C73.322,49.476,73.292,49.476,73.258,49.476z M74.441,46.148
		c-0.221-0.222-0.33-0.482-0.33-0.789c0-0.305,0.109-0.566,0.33-0.789c0.222-0.221,0.483-0.331,0.789-0.331s0.567,0.11,0.788,0.331
		c0.223,0.222,0.331,0.484,0.331,0.789c0,0.306-0.108,0.567-0.331,0.789c-0.221,0.222-0.482,0.331-0.788,0.331
		S74.663,46.369,74.441,46.148z M74.333,47.82h1.767v8.39h-1.767V47.82z M84.715,48.561c0.584,0.579,0.875,1.414,0.875,2.507v5.142
		h-1.766v-4.604c0-1.545-0.644-2.317-1.926-2.317c-0.609,0-1.143,0.202-1.594,0.606s-0.68,0.996-0.68,1.773v4.541H77.86v-8.39h1.766
		v1.529c0.285-0.516,0.678-0.92,1.178-1.215c0.498-0.294,1.035-0.44,1.613-0.44C83.368,47.694,84.131,47.983,84.715,48.561z
		 M91.613,54.254l0.728,1.245c-0.62,0.559-1.307,0.836-2.059,0.836c-0.753,0-1.395-0.261-1.925-0.779
		c-0.53-0.521-0.797-1.224-0.797-2.104v-4.21h-1.058V47.82h1.058v-2.633h1.769v2.633h2.207v1.42h-2.207v4.257
		c0,0.399,0.104,0.718,0.313,0.954c0.21,0.235,0.505,0.354,0.883,0.354C90.904,54.806,91.267,54.621,91.613,54.254z M99.971,53.701
		c0,0.799-0.289,1.438-0.867,1.916s-1.318,0.718-2.223,0.718c-0.61,0-1.244-0.109-1.9-0.331c-0.658-0.221-1.238-0.53-1.742-0.93
		l0.852-1.373c0.979,0.735,1.926,1.104,2.84,1.104c0.396,0,0.715-0.094,0.943-0.276c0.23-0.183,0.35-0.418,0.35-0.7
		c0-0.42-0.559-0.8-1.674-1.137c-0.084-0.03-0.146-0.052-0.188-0.063c-1.744-0.473-2.615-1.262-2.615-2.364
		c0-0.778,0.301-1.4,0.904-1.869s1.393-0.702,2.355-0.702c0.968,0,1.883,0.284,2.744,0.853l-0.662,1.31
		c-0.685-0.452-1.426-0.679-2.225-0.679c-0.42,0-0.762,0.077-1.023,0.229c-0.264,0.153-0.396,0.382-0.396,0.687
		c0,0.272,0.138,0.474,0.41,0.601c0.188,0.095,0.454,0.185,0.796,0.269s0.645,0.168,0.906,0.253c0.264,0.084,0.52,0.18,0.766,0.284
		c0.247,0.104,0.514,0.252,0.797,0.44C99.688,52.314,99.971,52.902,99.971,53.701z M13.508,40.134c0-1.72,0.888-3.114,1.982-3.114
		c1.094,0,1.982,1.396,1.982,3.114c0,1.72-0.888,3.115-1.982,3.115C14.396,43.249,13.508,41.855,13.508,40.134z"/>
</g>
<g display="none">
	<path display="inline" fill="#FFFFFF" d="M62.458,57.996h0.967v3.812h-0.596v-3.115l-1.396,2.776h-0.329l-1.394-2.777v3.116h-0.596
		v-3.812h0.971l1.188,2.469L62.458,57.996z M66.2,59.133c0.211,0.17,0.317,0.438,0.317,0.806v1.869h-0.506v-0.442l-0.052,0.062
		c-0.237,0.283-0.562,0.428-0.959,0.428c-0.297,0-0.547-0.085-0.742-0.253c-0.192-0.167-0.291-0.395-0.291-0.674
		c0-0.276,0.104-0.487,0.31-0.626c0.207-0.14,0.494-0.211,0.853-0.211h0.832v-0.14c0-0.409-0.229-0.615-0.683-0.615
		c-0.271,0-0.555,0.097-0.846,0.287l-0.244-0.343c0.347-0.267,0.742-0.401,1.179-0.401C65.706,58.877,65.986,58.963,66.2,59.133z
		 M65.956,60.462h-0.728c-0.463,0-0.698,0.15-0.698,0.45c0,0.152,0.061,0.271,0.18,0.354c0.115,0.077,0.274,0.117,0.479,0.117
		s0.383-0.058,0.535-0.172c0.153-0.115,0.231-0.273,0.231-0.472V60.462L65.956,60.462z M69.678,58.921h-0.717l-1.237,1.294v-2.456
		h-0.562v4.049h0.562V60.99l0.481-0.488l0.021,0.03l0.864,1.275h0.684l-1.184-1.75L69.678,58.921z M72.784,60.209v0.396h-2.312
		l0.002,0.03c0.017,0.223,0.118,0.403,0.306,0.539c0.186,0.135,0.399,0.202,0.637,0.202c0.362,0,0.646-0.111,0.842-0.334
		l0.313,0.343c-0.308,0.309-0.711,0.465-1.198,0.465c-0.403,0-0.752-0.137-1.035-0.404c-0.281-0.269-0.426-0.633-0.426-1.086
		c0-0.451,0.146-0.815,0.435-1.082c0.289-0.268,0.633-0.401,1.022-0.401c0.394,0,0.729,0.119,1.002,0.354
		C72.645,59.466,72.784,59.795,72.784,60.209z M72.222,60.148c0-0.256-0.081-0.455-0.243-0.593
		c-0.159-0.138-0.359-0.206-0.592-0.206c-0.233,0-0.444,0.071-0.629,0.213c-0.188,0.146-0.283,0.341-0.283,0.586v0.028h1.746
		L72.222,60.148L72.222,60.148z M75.602,61.139l-0.9-2.22h-0.601c1.176,2.917,1.176,2.976,1.176,2.999
		c0,0.125-0.046,0.241-0.138,0.347s-0.213,0.158-0.359,0.158c-0.135,0-0.268-0.055-0.394-0.165l-0.253,0.451
		c0.207,0.18,0.438,0.271,0.693,0.271c0.186,0,0.355-0.056,0.51-0.16c0.15-0.106,0.271-0.256,0.354-0.441l1.41-3.458h-0.6
		L75.602,61.139z M79.749,59.309c0.289,0.284,0.437,0.642,0.437,1.056s-0.146,0.771-0.437,1.057
		c-0.287,0.286-0.652,0.433-1.086,0.433s-0.8-0.146-1.086-0.433c-0.289-0.287-0.436-0.643-0.436-1.057s0.146-0.771,0.436-1.056
		c0.286-0.287,0.652-0.433,1.086-0.433C79.097,58.877,79.461,59.021,79.749,59.309z M79.622,60.363c0-0.289-0.092-0.53-0.271-0.715
		c-0.183-0.185-0.411-0.275-0.688-0.275c-0.274,0-0.509,0.093-0.688,0.275c-0.182,0.184-0.271,0.426-0.271,0.715
		c0,0.291,0.092,0.531,0.271,0.716c0.18,0.186,0.41,0.276,0.688,0.276c0.275,0,0.508-0.093,0.688-0.276
		C79.532,60.896,79.622,60.654,79.622,60.363z M82.727,60.485c0,0.28-0.084,0.497-0.248,0.646c-0.163,0.146-0.357,0.221-0.578,0.221
		c-0.467,0-0.705-0.284-0.705-0.844V58.92h-0.561v1.774c0,0.375,0.1,0.664,0.299,0.858c0.197,0.197,0.461,0.298,0.783,0.298
		c0.197,0,0.384-0.053,0.554-0.15c0.17-0.102,0.306-0.24,0.401-0.415l0.055-0.101v0.621h0.563V58.92h-0.563V60.485L82.727,60.485z
		 M84.98,59.055c-0.168,0.114-0.301,0.264-0.397,0.442L84.527,59.6v-0.68h-0.562v2.887h0.562v-1.231c0-0.342,0.08-0.617,0.239-0.82
		c0.16-0.206,0.4-0.312,0.715-0.312h0.004l-0.005-0.565C85.306,58.887,85.138,58.945,84.98,59.055z M90.734,58.877
		c-0.425,0-0.782,0.188-1.067,0.563l-0.028,0.04l-0.021-0.046c-0.162-0.376-0.464-0.559-0.92-0.559
		c-0.199,0-0.391,0.051-0.563,0.149c-0.172,0.101-0.305,0.238-0.391,0.414l-0.057,0.111v-0.63h-0.563v2.888h0.563v-1.563
		c0-0.281,0.084-0.498,0.248-0.646c0.164-0.146,0.357-0.222,0.579-0.222c0.223,0,0.389,0.069,0.491,0.208
		c0.104,0.137,0.156,0.35,0.156,0.635v1.588h0.563v-1.608c0.007-0.267,0.094-0.472,0.257-0.611c0.161-0.139,0.353-0.209,0.569-0.209
		c0.468,0,0.703,0.283,0.703,0.845v1.586h0.562v-1.774c0-0.373-0.103-0.662-0.299-0.859C91.32,58.977,91.057,58.877,90.734,58.877z
		 M94.471,59.133c0.211,0.17,0.318,0.438,0.318,0.806v1.869h-0.506v-0.442l-0.054,0.062c-0.235,0.283-0.56,0.428-0.957,0.428
		c-0.298,0-0.548-0.085-0.741-0.253c-0.193-0.167-0.291-0.395-0.291-0.674c0-0.276,0.104-0.487,0.309-0.626
		c0.207-0.14,0.494-0.211,0.853-0.211h0.831v-0.14c0-0.409-0.229-0.615-0.682-0.615c-0.27,0-0.555,0.097-0.846,0.287l-0.244-0.343
		c0.346-0.267,0.742-0.401,1.178-0.401C93.978,58.877,94.258,58.963,94.471,59.133z M94.228,60.462H93.5
		c-0.463,0-0.697,0.15-0.697,0.45c0,0.152,0.06,0.271,0.178,0.354c0.115,0.077,0.275,0.117,0.479,0.117
		c0.205,0,0.383-0.058,0.535-0.172c0.155-0.115,0.233-0.273,0.233-0.472V60.462z M96.448,59.055
		c-0.166,0.113-0.301,0.264-0.396,0.442L95.997,59.6v-0.68h-0.562v2.887h0.562v-1.231c0-0.342,0.08-0.617,0.237-0.82
		c0.16-0.206,0.399-0.312,0.716-0.312h0.004l-0.004-0.565C96.773,58.887,96.605,58.945,96.448,59.055z M99.87,58.921h-0.717
		l-1.236,1.294v-2.456h-0.562v4.049h0.562V60.99l0.481-0.488l0.021,0.03l0.865,1.275h0.682l-1.182-1.75L99.87,58.921z"/>
	<path display="inline" fill="#FFFFFF" d="M20.887,58.59c0.139-0.121,0.276-0.246,0.41-0.379c1.538-1.527,2.307-3.397,2.307-5.608
		c0-2.21-0.768-4.081-2.307-5.608c-1.539-1.529-3.461-2.292-5.769-2.292c-2.307,0-4.229,0.764-5.768,2.292
		c-1.539,1.527-2.308,3.397-2.308,5.608s0.769,4.081,2.308,5.608c1.538,1.529,3.46,2.293,5.768,2.293
		c1.108,0,2.126-0.178,3.057-0.53c2.214,1.793,5.738,1.862,5.738,1.862C22.62,61.228,21.398,59.453,20.887,58.59z M20.158,56.528
		h-9.261c-0.361,0-0.653-0.292-0.653-0.652c0-0.358,0.292-0.651,0.653-0.651h9.261c0.36,0,0.652,0.293,0.652,0.651
		C20.811,56.236,20.519,56.528,20.158,56.528z M20.158,53.254h-9.261c-0.361,0-0.653-0.292-0.653-0.651s0.292-0.651,0.653-0.651
		h9.261c0.36,0,0.652,0.292,0.652,0.651S20.519,53.254,20.158,53.254z M20.158,49.981h-9.261c-0.361,0-0.653-0.292-0.653-0.652
		c0-0.361,0.292-0.653,0.653-0.653h9.261c0.36,0,0.652,0.292,0.652,0.653C20.811,49.689,20.519,49.981,20.158,49.981z
		 M13.542,40.139c0-1.724,0.889-3.119,1.985-3.119c1.096,0,1.985,1.396,1.985,3.119c0,1.723-0.889,3.119-1.985,3.119
		C14.431,43.259,13.542,41.862,13.542,40.139z M7.127,42.167c-0.96-1.663-0.88-3.505,0.178-4.116
		c1.058-0.609,2.693,0.242,3.653,1.904c0.959,1.663,0.88,3.505-0.178,4.115C9.723,44.682,8.087,43.83,7.127,42.167z M7.004,47.916
		c-0.611,1.059-2.454,1.139-4.116,0.178c-1.663-0.96-2.515-2.596-1.904-3.652c0.611-1.059,2.454-1.139,4.116-0.178
		C6.763,45.222,7.615,46.858,7.004,47.916z M6.269,52.686c0,1.098-1.396,1.984-3.12,1.984c-1.723,0-3.12-0.89-3.12-1.984
		c0-1.096,1.397-1.983,3.12-1.983C4.872,50.701,6.269,51.59,6.269,52.686z M27.578,52.977h1.956c1.619,0,2.82-0.312,3.603-0.931
		c0.783-0.621,1.174-1.599,1.174-2.935c0-1.335-0.383-2.322-1.151-2.964s-1.987-0.962-3.658-0.962h-3.785v11.021h1.861V52.977z
		 M27.578,46.874h1.892c1.009,0,1.75,0.158,2.224,0.474c0.473,0.314,0.71,0.854,0.71,1.616c0,0.764-0.187,1.341-0.56,1.734
		c-0.373,0.395-1.075,0.592-2.105,0.592h-2.161V46.874z M40.453,55.949c0.521-0.259,0.949-0.63,1.285-1.112v1.372h1.767v-8.39
		h-1.767v1.451c-0.715-1.052-1.624-1.577-2.728-1.577s-2.061,0.39-2.87,1.167c-0.81,0.778-1.214,1.819-1.214,3.122
		c0,1.306,0.394,2.354,1.183,3.153c0.788,0.8,1.713,1.198,2.775,1.198C39.409,56.335,39.932,56.207,40.453,55.949z M36.692,52.054
		c0-0.805,0.252-1.475,0.757-2.011c0.505-0.536,1.109-0.804,1.814-0.804c0.704,0,1.298,0.268,1.782,0.804
		c0.483,0.537,0.726,1.204,0.726,2.003c0,0.8-0.242,1.453-0.726,1.963c-0.484,0.511-1.072,0.766-1.766,0.766
		c-0.694,0-1.298-0.252-1.814-0.757C36.949,53.513,36.692,52.858,36.692,52.054z M58.09,47.82l-2.9,8.39h-2.02l-1.986-5.74
		l-1.987,5.74h-2.018l-2.902-8.39h1.83l2.082,6.339l2.082-6.339H52.1l2.081,6.339l2.082-6.339H58.09z M67.709,49.113
		c0-1.334-0.385-2.322-1.15-2.964c-0.77-0.642-1.988-0.962-3.659-0.962h-3.784v11.021h1.861v-3.231h1.954
		c1.618,0,2.819-0.312,3.604-0.931C67.316,51.426,67.709,50.448,67.709,49.113z M65.241,50.697
		c-0.373,0.396-1.074,0.593-2.104,0.593h-2.16v-4.415h1.893c1.01,0,1.75,0.158,2.225,0.474c0.474,0.314,0.709,0.854,0.709,1.616
		C65.803,49.728,65.613,50.304,65.241,50.697z M73.258,49.476c-0.871,0-1.528,0.283-1.971,0.853
		c-0.441,0.567-0.662,1.329-0.662,2.286v3.596h-1.768V47.82h1.768v1.688c0.283-0.524,0.67-0.957,1.16-1.293
		c0.486-0.336,1.006-0.51,1.553-0.521l0.016,1.782C73.322,49.476,73.292,49.476,73.258,49.476z M74.441,46.148
		c-0.221-0.222-0.33-0.482-0.33-0.789c0-0.305,0.109-0.566,0.33-0.789c0.222-0.221,0.483-0.331,0.789-0.331s0.567,0.11,0.788,0.331
		c0.223,0.222,0.331,0.484,0.331,0.789c0,0.306-0.108,0.567-0.331,0.789c-0.221,0.222-0.482,0.331-0.788,0.331
		S74.663,46.369,74.441,46.148z M74.333,47.82h1.767v8.39h-1.767V47.82z M84.715,48.561c0.584,0.579,0.875,1.414,0.875,2.507v5.142
		h-1.766v-4.604c0-1.545-0.644-2.317-1.926-2.317c-0.609,0-1.143,0.202-1.594,0.606s-0.68,0.996-0.68,1.773v4.541H77.86v-8.39h1.766
		v1.529c0.285-0.516,0.678-0.92,1.178-1.215c0.498-0.294,1.035-0.44,1.613-0.44C83.368,47.694,84.131,47.983,84.715,48.561z
		 M91.613,54.254l0.728,1.245c-0.62,0.559-1.307,0.836-2.059,0.836c-0.753,0-1.395-0.261-1.925-0.779
		c-0.53-0.521-0.797-1.224-0.797-2.104v-4.21h-1.058V47.82h1.058v-2.633h1.769v2.633h2.207v1.42h-2.207v4.257
		c0,0.399,0.104,0.718,0.313,0.954c0.21,0.235,0.505,0.354,0.883,0.354C90.904,54.806,91.267,54.621,91.613,54.254z M99.971,53.701
		c0,0.799-0.289,1.438-0.867,1.916s-1.318,0.718-2.223,0.718c-0.61,0-1.244-0.109-1.9-0.331c-0.658-0.221-1.238-0.53-1.742-0.93
		l0.852-1.373c0.979,0.735,1.926,1.104,2.84,1.104c0.396,0,0.715-0.094,0.943-0.276c0.23-0.183,0.35-0.418,0.35-0.7
		c0-0.42-0.559-0.8-1.674-1.137c-0.084-0.03-0.146-0.052-0.188-0.063c-1.744-0.473-2.615-1.262-2.615-2.364
		c0-0.778,0.301-1.4,0.904-1.869s1.393-0.702,2.355-0.702c0.968,0,1.883,0.284,2.744,0.853l-0.662,1.31
		c-0.685-0.452-1.426-0.679-2.225-0.679c-0.42,0-0.762,0.077-1.023,0.229c-0.264,0.153-0.396,0.382-0.396,0.687
		c0,0.272,0.138,0.474,0.41,0.601c0.188,0.095,0.454,0.185,0.796,0.269s0.645,0.168,0.906,0.253c0.264,0.084,0.52,0.18,0.766,0.284
		c0.247,0.104,0.514,0.252,0.797,0.44C99.688,52.314,99.971,52.902,99.971,53.701z M13.508,40.134c0-1.72,0.888-3.114,1.982-3.114
		c1.094,0,1.982,1.396,1.982,3.114c0,1.72-0.888,3.115-1.982,3.115C14.396,43.249,13.508,41.855,13.508,40.134z"/>
</g>
<g>
	<path fill="none" d="M76.15,12.604c-0.573,0-1.063,0.2-1.47,0.6c-0.407,0.4-0.61,0.894-0.61,1.48c0,0.573,0.203,1.063,0.61,1.47
		c0.406,0.407,0.896,0.61,1.47,0.61s1.06-0.203,1.46-0.61c0.399-0.407,0.6-0.896,0.6-1.47c0-0.587-0.2-1.081-0.6-1.48
		C77.209,12.804,76.723,12.604,76.15,12.604z"/>
	<path fill="none" d="M44.351,11.984c-0.507,0-0.92,0.126-1.24,0.38s-0.527,0.613-0.62,1.08h3.68
		c-0.106-0.453-0.323-0.81-0.649-1.07C45.194,12.114,44.804,11.984,44.351,11.984z"/>
	<path fill="none" d="M33.291,8.704h-1.18v3.32h1.16c0.667,0,1.15-0.133,1.45-0.4c0.3-0.267,0.45-0.693,0.45-1.28
		c0-0.547-0.157-0.957-0.47-1.23C34.388,8.841,33.917,8.704,33.291,8.704z"/>
	<path d="M13.33,0C5.968,0,0,5.968,0,13.33c0,7.361,5.968,13.33,13.33,13.33s13.331-5.969,13.331-13.33
		C26.661,5.968,20.692,0,13.33,0z M13.33,25.756c-6.862,0-12.425-5.563-12.425-12.426S6.468,0.905,13.33,0.905
		S25.755,6.468,25.755,13.33S20.192,25.756,13.33,25.756z"/>
	<path fill="#FFFFFF" d="M9.831,3.412c0.084,0.07,0.178,0.087,0.281,0.054c0.091-0.03,0.157-0.093,0.195-0.189
		c0.039-0.097,0.025-0.244-0.04-0.443c-0.052-0.161-0.12-0.279-0.202-0.354C9.983,2.406,9.887,2.386,9.777,2.422
		C9.56,2.492,9.508,2.703,9.622,3.053C9.677,3.223,9.747,3.343,9.831,3.412z"/>
	<polygon fill="#FFFFFF" points="15.782,2.187 15.428,2.784 15.849,2.879 	"/>
	<polygon fill="#FFFFFF" points="10.042,23.916 10.042,23.22 9.631,23.78 	"/>
	<path fill="#FFFFFF" d="M13.33,0.905c-6.862,0-12.425,5.563-12.425,12.425S6.468,25.756,13.33,25.756s12.425-5.563,12.425-12.426
		S20.192,0.905,13.33,0.905z M16.738,2.168l0.266,0.091l-0.401,1.172l0.596,0.204l-0.078,0.229l-0.862-0.295L16.738,2.168z
		 M16.027,1.981l0.164,1.553l-0.279-0.062l-0.039-0.37l-0.556-0.124l-0.19,0.319l-0.222-0.049l0.801-1.339L16.027,1.981z
		 M14.774,1.756l0.264,0.036L14.84,3.26l-0.265-0.036L14.774,1.756z M13.546,1.853c0.114-0.136,0.265-0.199,0.452-0.188
		c0.146,0.008,0.267,0.06,0.359,0.155c0.093,0.096,0.147,0.228,0.163,0.397l-0.248,0.013c-0.034-0.226-0.128-0.342-0.283-0.35
		c-0.1-0.005-0.18,0.037-0.24,0.126c-0.061,0.09-0.095,0.223-0.104,0.399c-0.009,0.179,0.013,0.316,0.067,0.41
		c0.055,0.095,0.13,0.145,0.228,0.149c0.078,0.004,0.146-0.023,0.204-0.082c0.058-0.058,0.093-0.13,0.104-0.215l0.246,0.04
		c-0.024,0.147-0.088,0.266-0.191,0.357c-0.104,0.09-0.235,0.131-0.396,0.123c-0.135-0.007-0.243-0.047-0.324-0.119
		s-0.141-0.168-0.18-0.286c-0.04-0.119-0.055-0.249-0.048-0.388C13.368,2.169,13.432,1.989,13.546,1.853z M13.139,1.669l0.041,1.48
		l-0.267,0.007l-0.041-1.48L13.139,1.669z M12.7,1.673l0.023,0.228l-0.659,0.065l0.04,0.403l0.519-0.051l0.022,0.221L12.126,2.59
		l0.062,0.622l-0.273,0.027l-0.146-1.473L12.7,1.673z M11.547,1.792l0.045,0.224l-0.649,0.13l0.08,0.396l0.511-0.103l0.043,0.218
		l-0.51,0.103l0.123,0.612l-0.269,0.054l-0.292-1.452L11.547,1.792z M9.344,2.566c0.065-0.174,0.189-0.291,0.371-0.35
		c0.183-0.06,0.35-0.038,0.501,0.066c0.151,0.103,0.261,0.258,0.328,0.465c0.071,0.217,0.073,0.411,0.006,0.581
		c-0.067,0.169-0.191,0.284-0.374,0.343C9.989,3.732,9.82,3.71,9.67,3.603S9.412,3.341,9.345,3.134
		C9.278,2.929,9.278,2.74,9.344,2.566z M8.815,24.079l0.011-0.216c-0.141,0.098-0.293,0.108-0.457,0.032
		c-0.183-0.086-0.287-0.219-0.313-0.4c-0.025-0.181,0.005-0.362,0.091-0.545c0.09-0.193,0.217-0.334,0.38-0.42
		c0.163-0.088,0.335-0.089,0.516-0.004c0.135,0.063,0.228,0.154,0.278,0.273c0.05,0.119,0.06,0.241,0.028,0.369l-0.228-0.061
		c0.038-0.183-0.018-0.309-0.167-0.378c-0.095-0.044-0.19-0.042-0.287,0.007c-0.096,0.05-0.182,0.154-0.257,0.315
		c-0.158,0.338-0.131,0.557,0.081,0.656c0.083,0.039,0.164,0.042,0.245,0.011c0.081-0.032,0.143-0.095,0.187-0.188l-0.277-0.129
		l0.091-0.195l0.504,0.236l-0.321,0.686L8.815,24.079z M10.045,24.512l-0.002-0.372l-0.542-0.177l-0.22,0.298l-0.217-0.07
		l0.929-1.254l0.313,0.103l0.01,1.563L10.045,24.512z M11.911,24.914l-0.268-0.05l0.236-1.275l-0.639,1.2l-0.138-0.025l-0.169-1.35
		l-0.235,1.274l-0.215-0.039l0.27-1.456l0.411,0.076l0.131,0.993l0.473-0.882l0.413,0.077L11.911,24.914z M13.247,23.728
		l-0.684-0.039l-0.023,0.4l0.55,0.031l-0.012,0.215l-0.55-0.031l-0.023,0.413l0.694,0.04l-0.013,0.229l-0.961-0.055l0.084-1.479
		l0.951,0.054L13.247,23.728z M14.907,24.161c-0.082,0.093-0.192,0.146-0.33,0.159l-0.368,0.037l0.059,0.584l-0.266,0.026
		l-0.147-1.473l0.604-0.061c0.172-0.018,0.304,0.014,0.396,0.092c0.091,0.078,0.144,0.177,0.155,0.295
		C15.023,23.956,14.989,24.069,14.907,24.161z M16.079,24.6c-0.07,0.066-0.164,0.112-0.281,0.138
		c-0.118,0.025-0.22,0.024-0.305-0.002c-0.085-0.025-0.152-0.072-0.202-0.139c-0.049-0.066-0.085-0.157-0.11-0.272l-0.204-0.949
		l0.266-0.057l0.2,0.93c0.027,0.127,0.072,0.205,0.134,0.234c0.062,0.027,0.128,0.034,0.199,0.02
		c0.082-0.018,0.142-0.053,0.182-0.106c0.039-0.053,0.046-0.141,0.02-0.262l-0.2-0.931l0.207-0.045l0.2,0.931
		c0.027,0.126,0.034,0.226,0.02,0.3S16.149,24.534,16.079,24.6z M17.404,24.123c-0.063,0.123-0.17,0.209-0.323,0.261
		c-0.128,0.043-0.243,0.045-0.345,0.008c-0.102-0.037-0.192-0.104-0.272-0.2c-0.081-0.096-0.143-0.21-0.188-0.343
		c-0.072-0.214-0.08-0.405-0.023-0.573c0.056-0.169,0.173-0.282,0.351-0.342c0.139-0.047,0.27-0.043,0.391,0.012
		c0.122,0.055,0.221,0.157,0.299,0.31l-0.226,0.104c-0.115-0.197-0.246-0.271-0.393-0.223c-0.094,0.032-0.153,0.101-0.176,0.207
		c-0.023,0.105-0.006,0.242,0.05,0.409c0.057,0.17,0.128,0.289,0.214,0.356c0.085,0.068,0.174,0.087,0.267,0.056
		c0.074-0.025,0.127-0.075,0.159-0.151c0.033-0.076,0.039-0.155,0.019-0.238l0.243-0.053C17.483,23.867,17.467,24.001,17.404,24.123
		z M18.588,23.73l-0.604-0.55l-0.098,0.466l0.159,0.339l-0.242,0.113l-0.629-1.34l0.242-0.113l0.331,0.704
		c0.008-0.063,0.015-0.106,0.021-0.131l0.161-0.814l0.244-0.114l-0.111,0.59l0.796,0.724L18.588,23.73z M13.33,22.77
		c-5.213,0-9.44-4.227-9.44-9.44c0-5.213,4.227-9.44,9.44-9.44s9.44,4.227,9.44,9.44C22.771,18.544,18.543,22.77,13.33,22.77z"/>
	<path fill="#FFFFFF" d="M14.433,23.659l-0.291,0.029l0.044,0.441l0.314-0.031c0.082-0.009,0.143-0.034,0.182-0.079
		s0.056-0.101,0.049-0.167c-0.006-0.061-0.031-0.111-0.075-0.149C14.611,23.663,14.537,23.648,14.433,23.659z"/>
	<path d="M8.739,23.207l-0.091,0.195l0.277,0.129c-0.044,0.094-0.106,0.156-0.187,0.188c-0.081,0.031-0.163,0.028-0.245-0.011
		c-0.212-0.1-0.239-0.318-0.081-0.656c0.075-0.161,0.161-0.266,0.257-0.315c0.096-0.049,0.191-0.051,0.287-0.007
		c0.149,0.069,0.205,0.195,0.167,0.378l0.228,0.061c0.032-0.128,0.022-0.25-0.028-0.369c-0.051-0.119-0.144-0.211-0.278-0.273
		c-0.181-0.085-0.353-0.084-0.516,0.004c-0.163,0.086-0.29,0.227-0.38,0.42c-0.085,0.183-0.116,0.364-0.091,0.545
		c0.025,0.182,0.129,0.314,0.313,0.4c0.164,0.076,0.316,0.065,0.457-0.032l-0.011,0.216l0.107,0.05l0.321-0.686L8.739,23.207z"/>
	<path d="M9.994,22.937l-0.929,1.254l0.217,0.07l0.22-0.298l0.542,0.177l0.002,0.372l0.271,0.09l-0.01-1.563L9.994,22.937z
		 M10.042,23.916l-0.41-0.136l0.411-0.56L10.042,23.916z"/>
	<polygon points="11.294,24.262 11.163,23.269 10.752,23.193 10.482,24.649 10.697,24.688 10.933,23.414 11.102,24.763 
		11.24,24.789 11.879,23.589 11.643,24.864 11.911,24.914 12.18,23.458 11.767,23.381 	"/>
	<polygon points="12.224,24.932 13.185,24.987 13.198,24.758 12.504,24.718 12.527,24.304 13.078,24.336 13.089,24.121 12.54,24.09 
		12.563,23.689 13.247,23.728 13.259,23.508 12.309,23.454 	"/>
	<path d="M14.458,23.434l-0.604,0.061l0.147,1.473l0.266-0.026l-0.059-0.584l0.368-0.037c0.138-0.014,0.249-0.066,0.33-0.159
		c0.082-0.092,0.116-0.205,0.102-0.34c-0.012-0.118-0.064-0.217-0.155-0.295C14.762,23.448,14.63,23.417,14.458,23.434z
		 M14.682,24.019c-0.039,0.045-0.1,0.07-0.182,0.079l-0.314,0.031l-0.044-0.441l0.291-0.029c0.104-0.011,0.178,0.004,0.223,0.044
		c0.044,0.038,0.069,0.089,0.075,0.149C14.738,23.919,14.721,23.974,14.682,24.019z"/>
	<path d="M15.985,23.159l-0.207,0.045l0.2,0.931c0.026,0.121,0.02,0.209-0.02,0.262c-0.04,0.054-0.1,0.089-0.182,0.106
		c-0.071,0.015-0.137,0.008-0.199-0.02c-0.062-0.029-0.106-0.107-0.134-0.234l-0.2-0.93l-0.266,0.057l0.204,0.949
		c0.025,0.115,0.062,0.206,0.11,0.272c0.049,0.066,0.116,0.113,0.202,0.139c0.085,0.026,0.187,0.027,0.305,0.002
		c0.117-0.025,0.21-0.071,0.281-0.138s0.112-0.137,0.126-0.211s0.007-0.174-0.02-0.3L15.985,23.159z"/>
	<path d="M17.208,23.774c0.02,0.083,0.014,0.162-0.019,0.238c-0.032,0.076-0.085,0.126-0.159,0.151
		c-0.093,0.031-0.182,0.013-0.267-0.056c-0.085-0.067-0.157-0.187-0.214-0.356c-0.056-0.167-0.073-0.304-0.05-0.409
		c0.022-0.106,0.082-0.175,0.176-0.207c0.147-0.049,0.278,0.025,0.393,0.223l0.226-0.104c-0.078-0.152-0.177-0.255-0.299-0.31
		c-0.121-0.055-0.251-0.059-0.391-0.012c-0.177,0.06-0.294,0.173-0.351,0.342c-0.057,0.168-0.049,0.359,0.023,0.573
		c0.044,0.133,0.107,0.247,0.188,0.343c0.08,0.096,0.171,0.163,0.272,0.2c0.102,0.037,0.216,0.035,0.345-0.008
		c0.152-0.052,0.26-0.138,0.323-0.261c0.063-0.122,0.079-0.256,0.046-0.401L17.208,23.774z"/>
	<path d="M18.172,22.29l-0.244,0.114l-0.161,0.814c-0.005,0.024-0.012,0.068-0.021,0.131l-0.331-0.704l-0.242,0.113l0.629,1.34
		l0.242-0.113l-0.159-0.339l0.098-0.466l0.604,0.55l0.27-0.127l-0.796-0.724L18.172,22.29z"/>
	<path d="M9.67,3.603c0.15,0.106,0.318,0.129,0.505,0.068c0.182-0.059,0.307-0.174,0.374-0.343c0.067-0.17,0.065-0.363-0.006-0.581
		c-0.067-0.207-0.177-0.362-0.328-0.465c-0.151-0.104-0.318-0.125-0.501-0.066c-0.182,0.059-0.305,0.176-0.371,0.35
		C9.278,2.74,9.278,2.929,9.345,3.134C9.412,3.341,9.521,3.497,9.67,3.603z M9.777,2.422c0.11-0.036,0.206-0.017,0.288,0.058
		c0.083,0.075,0.15,0.193,0.202,0.354c0.065,0.199,0.078,0.346,0.04,0.443c-0.039,0.096-0.104,0.159-0.195,0.189
		C10.008,3.5,9.915,3.482,9.831,3.412S9.677,3.223,9.622,3.053C9.508,2.703,9.56,2.492,9.777,2.422z"/>
	<polygon points="11.19,3.373 11.067,2.761 11.577,2.658 11.534,2.44 11.023,2.543 10.943,2.146 11.592,2.016 11.547,1.792 
		10.629,1.976 10.921,3.427 	"/>
	<polygon points="12.188,3.212 12.126,2.59 12.645,2.538 12.623,2.317 12.104,2.368 12.064,1.966 12.723,1.901 12.7,1.673 
		11.769,1.765 11.915,3.239 	"/>
	<rect x="12.286" y="2.279" transform="matrix(0.0274 0.9996 -0.9996 0.0274 15.0812 -10.6747)" width="1.481" height="0.267"/>
	<path d="M13.584,3.069c0.081,0.072,0.188,0.112,0.324,0.119c0.16,0.009,0.292-0.032,0.396-0.123
		c0.104-0.091,0.167-0.209,0.191-0.357l-0.246-0.04c-0.012,0.085-0.046,0.157-0.104,0.215c-0.058,0.059-0.126,0.086-0.204,0.082
		c-0.098-0.005-0.173-0.055-0.228-0.149c-0.054-0.094-0.077-0.231-0.067-0.41c0.009-0.176,0.044-0.31,0.104-0.399
		c0.06-0.09,0.14-0.132,0.24-0.126c0.155,0.008,0.25,0.125,0.283,0.35l0.248-0.013c-0.016-0.169-0.07-0.302-0.163-0.397
		c-0.093-0.095-0.213-0.147-0.359-0.155c-0.187-0.01-0.338,0.053-0.452,0.188c-0.114,0.136-0.178,0.316-0.189,0.542
		c-0.007,0.14,0.008,0.27,0.048,0.388C13.443,2.901,13.503,2.996,13.584,3.069z"/>
	<rect x="14.674" y="1.767" transform="matrix(0.9908 0.1355 -0.1355 0.9908 0.4765 -1.9836)" width="0.267" height="1.481"/>
	<path d="M15.127,3.298l0.19-0.319l0.556,0.124l0.039,0.37l0.279,0.062l-0.164-1.553l-0.321-0.072l-0.801,1.339L15.127,3.298z
		 M15.782,2.187l0.067,0.692l-0.421-0.094L15.782,2.187z"/>
	<polygon points="17.199,3.635 16.603,3.431 17.003,2.259 16.738,2.168 16.258,3.569 17.121,3.864 	"/>
	<path d="M13.33,3.889c-5.213,0-9.44,4.227-9.44,9.44c0,5.214,4.227,9.44,9.44,9.44s9.44-4.227,9.44-9.44
		C22.771,8.116,18.543,3.889,13.33,3.889z M11.931,13.199c-0.23,0.045-0.468,0.013-0.691-0.054
		c-0.025-0.006-0.051-0.026-0.076-0.011c-0.182,0.073-0.381,0.106-0.577,0.092c-0.067-0.007-0.134-0.02-0.201-0.027
		c0.018-0.385,0.019-0.774-0.051-1.155c-0.058-0.308-0.158-0.621-0.37-0.859c-0.161-0.181-0.397-0.29-0.64-0.297
		c0,0.389,0,0.779,0,1.168c0,0.065-0.004,0.133,0.012,0.198c0.037,0.151,0.124,0.286,0.222,0.405c0.086,0.101,0.184,0.193,0.3,0.258
		c-0.189,0.175-0.438,0.288-0.696,0.305c-0.2,0.01-0.4-0.029-0.588-0.094c-0.208,0.078-0.436,0.121-0.657,0.079
		c-0.218-0.041-0.413-0.171-0.547-0.345c0.167-0.038,0.316-0.143,0.409-0.286c0.089-0.138,0.145-0.3,0.142-0.466
		c0-0.524,0-1.049,0-1.574c-0.001-0.136-0.031-0.281-0.122-0.388c-0.073-0.089-0.175-0.145-0.276-0.195
		C7.631,9.927,7.74,9.885,7.814,9.8C7.897,9.712,7.929,9.587,7.93,9.468c0-0.438,0-0.876,0-1.314
		C7.918,8.026,7.942,7.896,7.901,7.772C7.825,7.51,7.58,7.314,7.311,7.28c0.168-0.195,0.41-0.318,0.661-0.364
		C8.194,6.875,8.419,6.93,8.628,7.004c0.37-0.079,0.75-0.091,1.126-0.103c0.43-0.008,0.87,0.035,1.271,0.202
		c0.306,0.128,0.583,0.347,0.737,0.644c0.076,0.144,0.124,0.301,0.141,0.462c0.011,0.096-0.006,0.195,0.029,0.288
		c0.057,0.175,0.214,0.295,0.376,0.37c-0.129,0.053-0.253,0.134-0.331,0.253c-0.046,0.071-0.071,0.154-0.071,0.239
		c0.003,0.248-0.086,0.493-0.236,0.689c-0.17,0.223-0.404,0.388-0.653,0.512c0.268,0.26,0.437,0.604,0.553,0.955
		c0.068,0.212,0.12,0.429,0.151,0.65c0.011,0.087,0.063,0.162,0.117,0.23c0.174,0.208,0.399,0.37,0.637,0.497
		C12.328,13.042,12.141,13.16,11.931,13.199z M16.291,13.379c-0.269,0.154-0.564,0.259-0.869,0.315
		c-0.301,0.058-0.61,0.029-0.915,0.021c0,0.437-0.001,0.875,0,1.311c0.037,0.212,0.153,0.404,0.304,0.555
		c0.076,0.066,0.154,0.13,0.232,0.194c-0.147,0.092-0.286,0.206-0.457,0.252c-0.273,0.078-0.566,0.035-0.832-0.056
		c-0.201,0.078-0.421,0.117-0.636,0.084c-0.125-0.021-0.249-0.065-0.348-0.147c-0.072-0.066-0.146-0.131-0.217-0.198
		c0.085-0.045,0.171-0.089,0.256-0.133c0.061-0.032,0.107-0.087,0.144-0.143c0.078-0.124,0.126-0.265,0.149-0.408
		c0.001-0.543,0-1.086,0.001-1.629c0-0.13-0.027-0.264-0.104-0.371c-0.07-0.102-0.175-0.175-0.286-0.227
		c0.111-0.031,0.227-0.072,0.305-0.161c0.076-0.088,0.09-0.209,0.091-0.322c-0.001-0.53,0.004-1.06-0.005-1.589
		c-0.023-0.15-0.084-0.299-0.196-0.404c-0.11-0.106-0.259-0.162-0.407-0.191c0.13-0.195,0.355-0.304,0.579-0.356
		c0.242-0.061,0.497-0.014,0.725,0.076c0.318-0.072,0.646-0.086,0.971-0.1c0.318-0.014,0.639-0.006,0.952,0.055
		c0.289,0.055,0.576,0.155,0.815,0.33c0.279,0.2,0.48,0.51,0.531,0.851c0.028,0.146-0.009,0.301,0.057,0.439
		c0.07,0.154,0.231,0.233,0.381,0.29c-0.125,0.034-0.249,0.094-0.33,0.199c-0.065,0.081-0.095,0.187-0.095,0.291
		c0.002,0.249-0.088,0.494-0.235,0.692C16.703,13.097,16.505,13.255,16.291,13.379z M19.59,15.523
		c0.153,0.129,0.351,0.19,0.544,0.225c-0.193,0.033-0.386,0.096-0.54,0.221c-0.111,0.091-0.191,0.226-0.194,0.371
		c0,0.411,0,0.821,0,1.232c0.003,0.127-0.011,0.257,0.024,0.381c0.042,0.165,0.158,0.305,0.303,0.391
		c0.198,0.118,0.433,0.156,0.661,0.159c-0.2,0.162-0.433,0.285-0.683,0.353c-0.329,0.091-0.696,0.064-0.999-0.099
		c-0.308,0.166-0.68,0.189-1.013,0.096c-0.244-0.069-0.473-0.19-0.669-0.35c0.243-0.002,0.498-0.047,0.702-0.187
		c0.175-0.114,0.283-0.318,0.285-0.526c0-0.484,0-0.968,0-1.451c-0.003-0.142-0.08-0.273-0.187-0.364
		c-0.154-0.13-0.352-0.191-0.548-0.227c0.195-0.033,0.392-0.097,0.546-0.226c0.111-0.09,0.188-0.228,0.188-0.374
		c0-0.479,0-0.957,0-1.437c-0.001-0.186-0.084-0.37-0.229-0.488c-0.209-0.176-0.491-0.225-0.757-0.232
		c0.225-0.182,0.491-0.314,0.775-0.373c0.117-0.022,0.239-0.042,0.357-0.018c0.185,0.032,0.375,0.059,0.548,0.138
		c0.229-0.125,0.497-0.167,0.754-0.144c0.339,0.037,0.661,0.184,0.925,0.397c-0.232,0.006-0.472,0.043-0.671,0.169
		c-0.148,0.092-0.262,0.241-0.297,0.414c-0.023,0.099-0.016,0.201-0.017,0.302c0,0.424,0,0.849,0,1.272
		C19.401,15.295,19.478,15.432,19.59,15.523z"/>
	<path d="M15.731,11.219c-0.009-0.15-0.105-0.289-0.237-0.36c-0.131-0.071-0.283-0.088-0.43-0.084
		c-0.152,0.002-0.308,0.006-0.456,0.047c-0.046,0.013-0.114,0.035-0.106,0.096c-0.001,0.521,0,1.042,0,1.563
		c-0.003,0.044,0.036,0.074,0.067,0.099c0.097,0.067,0.217,0.09,0.332,0.104c0.186,0.017,0.382,0.012,0.552-0.073
		c0.229-0.115,0.349-0.424,0.23-0.657c-0.063-0.125-0.188-0.205-0.317-0.251c0.105-0.047,0.213-0.101,0.285-0.194
		C15.717,11.427,15.731,11.32,15.731,11.219z"/>
	<path d="M10.176,8.861c0.08-0.034,0.159-0.072,0.227-0.127c0.085-0.066,0.136-0.17,0.144-0.277c0.023-0.146-0.045-0.297-0.158-0.39
		c-0.112-0.092-0.26-0.127-0.403-0.134c-0.165-0.002-0.33-0.001-0.493,0.029c-0.052,0.012-0.106,0.023-0.15,0.055
		C9.32,8.031,9.324,8.061,9.322,8.085c0.001,0.525-0.001,1.05,0.001,1.575c0.019,0.044,0.061,0.074,0.101,0.097
		c0.134,0.072,0.29,0.086,0.439,0.091c0.149,0,0.305-0.02,0.436-0.097c0.205-0.119,0.312-0.398,0.215-0.618
		C10.453,8.992,10.311,8.914,10.176,8.861z"/>
	<path fill="#FFFFFF" d="M11.52,12.163c-0.059-0.37-0.164-0.736-0.343-1.066c-0.132-0.242-0.321-0.466-0.576-0.584
		c0.287-0.092,0.563-0.235,0.782-0.443c0.152-0.147,0.272-0.334,0.31-0.545c0.021-0.095,0.009-0.193,0.023-0.29
		c0.017-0.138,0.075-0.277,0.184-0.368c-0.141-0.127-0.188-0.325-0.191-0.508c0.007-0.183-0.041-0.366-0.126-0.527
		c-0.112-0.209-0.296-0.372-0.503-0.481c-0.261-0.138-0.554-0.204-0.845-0.232c-0.232-0.025-0.467-0.018-0.699-0.009
		C9.279,7.119,9.022,7.134,8.769,7.178C8.713,7.186,8.66,7.208,8.604,7.213c-0.117-0.052-0.242-0.09-0.369-0.104
		C8.056,7.085,7.866,7.114,7.716,7.218c0.241,0.123,0.374,0.389,0.408,0.648c0.009,0.515,0.003,1.031,0.005,1.546
		C8.13,9.537,8.119,9.664,8.083,9.784C8.056,9.867,8.016,9.95,7.94,9.999c0.138,0.14,0.179,0.346,0.181,0.536
		c0,0.552,0.001,1.104,0,1.658c-0.013,0.109-0.046,0.216-0.086,0.319c-0.065,0.158-0.162,0.316-0.318,0.397
		c0.08,0.065,0.183,0.097,0.284,0.109c0.198,0.022,0.395-0.03,0.575-0.106c0.13,0.055,0.27,0.09,0.41,0.104
		c0.185,0.02,0.38-0.005,0.541-0.105c-0.195-0.18-0.34-0.417-0.394-0.679c-0.008-0.04-0.004-0.083-0.004-0.123
		c0-0.469,0-0.938,0-1.406c0.317-0.053,0.657,0.044,0.896,0.26c0.239,0.213,0.378,0.515,0.458,0.819
		c0.106,0.406,0.124,0.828,0.11,1.245c0.201,0.017,0.402-0.028,0.583-0.114c0.139,0.054,0.284,0.091,0.432,0.104
		c0.178,0.017,0.368-0.005,0.52-0.105c-0.143-0.097-0.277-0.206-0.394-0.333C11.631,12.461,11.537,12.323,11.52,12.163z
		 M10.551,9.802c-0.122,0.13-0.294,0.203-0.469,0.228c-0.163,0.024-0.329,0.019-0.49-0.009C9.451,9.995,9.307,9.943,9.207,9.836
		C9.163,9.787,9.123,9.728,9.123,9.66c0-0.521,0-1.041,0-1.561c0-0.064,0.008-0.133,0.047-0.187c0.049-0.071,0.134-0.106,0.215-0.13
		c0.191-0.05,0.391-0.051,0.587-0.05c0.208,0.004,0.425,0.065,0.577,0.213c0.114,0.112,0.189,0.267,0.2,0.427
		c-0.004,0.172-0.043,0.364-0.177,0.485c0.081,0.081,0.138,0.183,0.159,0.296C10.785,9.382,10.708,9.63,10.551,9.802z"/>
	<path fill="#FFFFFF" d="M16.751,10.655c-0.102-0.179-0.256-0.324-0.433-0.428c-0.266-0.158-0.572-0.229-0.876-0.263
		c-0.252-0.029-0.507-0.021-0.761-0.01c-0.299,0.016-0.601,0.029-0.892,0.106c-0.142-0.065-0.295-0.106-0.451-0.114
		c-0.156-0.009-0.314,0.03-0.445,0.116c0.245,0.121,0.377,0.392,0.411,0.652c0.007,0.516,0.004,1.031,0.005,1.547
		c0.001,0.088-0.004,0.176-0.02,0.262c-0.022,0.119-0.063,0.248-0.167,0.321c0.145,0.147,0.181,0.367,0.18,0.566
		c0,0.516,0,1.031,0,1.547c0.007,0.131-0.036,0.256-0.078,0.378c-0.065,0.167-0.165,0.335-0.33,0.42
		c0.078,0.058,0.17,0.093,0.266,0.105c0.202,0.028,0.405-0.023,0.591-0.101c0.128,0.044,0.26,0.086,0.396,0.101
		c0.19,0.021,0.396,0.003,0.56-0.105c-0.204-0.182-0.351-0.434-0.398-0.702c-0.003-0.515,0-1.029-0.002-1.544
		c0.225,0.008,0.449,0.019,0.675,0.021c0.382,0.01,0.762-0.092,1.103-0.262c0.234-0.121,0.456-0.281,0.612-0.497
		c0.122-0.167,0.196-0.372,0.192-0.579c0.001-0.175,0.053-0.363,0.191-0.48c-0.138-0.127-0.187-0.322-0.19-0.504
		C16.897,11.014,16.847,10.821,16.751,10.655z M15.931,12.164c-0.01,0.2-0.097,0.401-0.252,0.532
		c-0.18,0.153-0.425,0.198-0.655,0.194c-0.192-0.007-0.393-0.032-0.556-0.14c-0.077-0.055-0.15-0.132-0.163-0.229
		c0-0.533,0-1.067,0-1.601c-0.002-0.091,0.041-0.182,0.119-0.231c0.126-0.077,0.277-0.091,0.421-0.104
		c0.196-0.01,0.396-0.022,0.586,0.036c0.147,0.042,0.285,0.131,0.374,0.258c0.071,0.099,0.118,0.219,0.125,0.342
		c-0.005,0.174-0.045,0.365-0.179,0.486C15.882,11.818,15.93,11.998,15.931,12.164z"/>
	<path fill="#FFFFFF" d="M19.324,13.247c0.106-0.188,0.304-0.31,0.512-0.349c-0.175-0.089-0.374-0.12-0.568-0.109
		c-0.198,0.01-0.405,0.059-0.56,0.19c-0.131-0.11-0.299-0.164-0.467-0.182c-0.223-0.026-0.459-0.003-0.661,0.103
		c0.153,0.029,0.301,0.1,0.409,0.214c0.153,0.153,0.216,0.373,0.22,0.585c0,0.47,0,0.939,0,1.409
		c0.002,0.133-0.022,0.271-0.089,0.386c-0.072,0.125-0.196,0.213-0.332,0.258c0.164,0.048,0.306,0.169,0.368,0.33
		c0.057,0.133,0.056,0.28,0.053,0.422c0,0.416,0,0.831,0,1.247c0.003,0.19-0.035,0.388-0.145,0.546
		c-0.11,0.163-0.292,0.27-0.483,0.305c0.192,0.103,0.417,0.124,0.632,0.105c0.177-0.017,0.357-0.069,0.495-0.187
		c0.172,0.146,0.406,0.193,0.626,0.191c0.171,0.004,0.344-0.031,0.497-0.107c-0.054-0.018-0.11-0.028-0.162-0.052
		c-0.156-0.063-0.288-0.184-0.365-0.333c-0.073-0.14-0.097-0.3-0.099-0.456c-0.001-0.429-0.011-0.857-0.012-1.287
		c-0.009-0.148,0.004-0.304,0.072-0.439c0.068-0.141,0.202-0.244,0.352-0.286c-0.069-0.022-0.138-0.053-0.196-0.099
		c-0.124-0.093-0.198-0.24-0.219-0.392c-0.021-0.123-0.005-0.248-0.009-0.372c0.002-0.364,0.01-0.729,0.011-1.094
		C19.202,13.606,19.226,13.411,19.324,13.247z"/>
	<path fill="#EC1C26" d="M11.721,12.163c-0.031-0.221-0.083-0.438-0.151-0.65c-0.116-0.351-0.285-0.695-0.553-0.955
		c0.249-0.124,0.483-0.289,0.653-0.512c0.15-0.196,0.239-0.441,0.236-0.689c0-0.084,0.024-0.168,0.071-0.239
		c0.078-0.119,0.202-0.2,0.331-0.253c-0.162-0.074-0.319-0.194-0.376-0.37c-0.036-0.093-0.018-0.192-0.029-0.288
		c-0.017-0.161-0.065-0.319-0.141-0.462c-0.155-0.297-0.431-0.516-0.737-0.644c-0.4-0.167-0.84-0.209-1.271-0.202
		C9.377,6.913,8.998,6.926,8.628,7.004C8.419,6.93,8.194,6.875,7.972,6.916C7.721,6.961,7.479,7.085,7.311,7.28
		c0.269,0.035,0.514,0.23,0.59,0.493c0.042,0.124,0.018,0.254,0.028,0.381c0.001,0.438,0,0.876,0,1.314
		c0,0.119-0.033,0.244-0.115,0.332C7.74,9.885,7.631,9.927,7.524,9.952c0.101,0.05,0.204,0.106,0.276,0.195
		c0.091,0.107,0.121,0.252,0.122,0.388c0.001,0.524,0,1.049,0,1.574c0.003,0.166-0.052,0.328-0.142,0.466
		c-0.093,0.143-0.242,0.249-0.409,0.286c0.134,0.174,0.33,0.304,0.547,0.345c0.221,0.042,0.449-0.001,0.657-0.079
		c0.188,0.065,0.388,0.104,0.588,0.094c0.258-0.018,0.507-0.13,0.696-0.305c-0.117-0.064-0.214-0.157-0.3-0.258
		c-0.098-0.119-0.185-0.253-0.222-0.405c-0.017-0.064-0.012-0.132-0.012-0.198c0-0.389,0-0.779,0-1.168
		c0.243,0.007,0.479,0.117,0.64,0.297c0.212,0.238,0.312,0.552,0.37,0.859c0.07,0.38,0.069,0.77,0.051,1.155
		c0.067,0.007,0.134,0.02,0.201,0.027c0.196,0.015,0.395-0.019,0.577-0.092c0.025-0.015,0.051,0.005,0.076,0.011
		c0.223,0.067,0.461,0.1,0.691,0.054c0.209-0.04,0.397-0.157,0.544-0.309c-0.238-0.127-0.463-0.289-0.637-0.497
		C11.784,12.325,11.732,12.251,11.721,12.163z M11.608,13.017c-0.148-0.013-0.293-0.05-0.432-0.104
		c-0.181,0.086-0.383,0.131-0.583,0.114c0.013-0.417-0.004-0.839-0.11-1.245c-0.08-0.304-0.219-0.606-0.458-0.819
		c-0.239-0.216-0.579-0.313-0.896-0.26c0,0.469,0,0.938,0,1.406c0,0.041-0.003,0.083,0.004,0.123
		c0.054,0.261,0.199,0.499,0.394,0.679c-0.16,0.101-0.355,0.125-0.541,0.105c-0.141-0.015-0.28-0.049-0.41-0.104
		C8.395,12.989,8.198,13.041,8,13.019c-0.101-0.013-0.204-0.044-0.284-0.109c0.157-0.081,0.253-0.239,0.318-0.397
		c0.04-0.103,0.073-0.21,0.086-0.319c0.001-0.553,0.001-1.105,0-1.658c-0.002-0.19-0.042-0.396-0.181-0.536
		C8.016,9.95,8.056,9.867,8.083,9.784c0.037-0.12,0.048-0.247,0.046-0.372C8.127,8.897,8.132,8.381,8.124,7.866
		c-0.034-0.26-0.167-0.525-0.408-0.648c0.15-0.104,0.34-0.133,0.519-0.109c0.127,0.015,0.252,0.053,0.369,0.104
		C8.66,7.208,8.713,7.186,8.769,7.178c0.253-0.044,0.51-0.06,0.766-0.071c0.232-0.008,0.467-0.016,0.699,0.009
		c0.292,0.029,0.584,0.095,0.845,0.232c0.208,0.11,0.392,0.272,0.503,0.481c0.086,0.161,0.134,0.345,0.126,0.527
		c0.003,0.183,0.05,0.381,0.191,0.508c-0.109,0.091-0.167,0.229-0.184,0.368c-0.014,0.096-0.002,0.195-0.023,0.29
		c-0.038,0.211-0.157,0.398-0.31,0.545c-0.22,0.208-0.495,0.351-0.782,0.443c0.255,0.118,0.443,0.343,0.576,0.584
		c0.18,0.331,0.285,0.697,0.343,1.066c0.017,0.16,0.111,0.297,0.214,0.415c0.116,0.128,0.251,0.237,0.394,0.333
		C11.976,13.012,11.786,13.034,11.608,13.017z"/>
	<path fill="#EC1C26" d="M10.573,8.858c0.134-0.121,0.173-0.313,0.177-0.485c-0.011-0.16-0.086-0.315-0.2-0.427
		c-0.152-0.148-0.369-0.209-0.577-0.213c-0.196-0.001-0.396,0-0.587,0.05C9.305,7.806,9.22,7.842,9.17,7.913
		C9.131,7.966,9.124,8.035,9.123,8.099c0,0.52,0,1.04,0,1.561c0,0.068,0.04,0.127,0.083,0.176c0.1,0.106,0.244,0.159,0.386,0.185
		c0.161,0.028,0.328,0.033,0.49,0.009c0.174-0.025,0.347-0.098,0.469-0.228c0.157-0.171,0.233-0.42,0.181-0.647
		C10.711,9.041,10.654,8.939,10.573,8.858z M10.298,9.751c-0.131,0.077-0.286,0.097-0.436,0.097
		C9.713,9.843,9.558,9.829,9.424,9.757c-0.04-0.023-0.082-0.053-0.101-0.097c-0.002-0.525,0-1.049-0.001-1.575
		C9.324,8.061,9.32,8.031,9.343,8.016c0.044-0.032,0.099-0.043,0.15-0.055c0.163-0.03,0.328-0.032,0.493-0.029
		c0.143,0.007,0.291,0.042,0.403,0.134c0.113,0.092,0.181,0.244,0.158,0.39c-0.008,0.107-0.059,0.211-0.144,0.277
		c-0.067,0.055-0.147,0.093-0.227,0.127c0.135,0.053,0.277,0.132,0.338,0.272C10.61,9.353,10.503,9.632,10.298,9.751z"/>
	<path fill="#EC1C26" d="M17.182,11.915c0.081-0.105,0.205-0.165,0.33-0.199c-0.15-0.056-0.311-0.136-0.381-0.29
		c-0.065-0.138-0.029-0.293-0.057-0.439c-0.05-0.341-0.252-0.651-0.531-0.851c-0.24-0.175-0.526-0.275-0.815-0.33
		c-0.313-0.062-0.633-0.069-0.952-0.055c-0.325,0.014-0.652,0.028-0.971,0.1c-0.229-0.09-0.483-0.137-0.725-0.076
		c-0.223,0.053-0.448,0.161-0.579,0.356c0.148,0.029,0.297,0.085,0.407,0.191c0.112,0.105,0.173,0.254,0.196,0.404
		c0.009,0.529,0.003,1.059,0.005,1.589c-0.001,0.112-0.015,0.233-0.091,0.322c-0.078,0.089-0.194,0.13-0.305,0.161
		c0.111,0.052,0.215,0.125,0.286,0.227c0.077,0.107,0.104,0.241,0.104,0.371c-0.001,0.543,0,1.086-0.001,1.629
		c-0.023,0.144-0.071,0.284-0.149,0.408c-0.037,0.056-0.083,0.11-0.144,0.143c-0.085,0.044-0.171,0.088-0.256,0.133
		c0.071,0.067,0.145,0.132,0.217,0.198c0.099,0.082,0.223,0.126,0.348,0.147c0.214,0.033,0.435-0.006,0.636-0.084
		c0.265,0.091,0.558,0.134,0.832,0.056c0.17-0.046,0.309-0.16,0.457-0.252c-0.078-0.064-0.156-0.128-0.232-0.194
		c-0.15-0.15-0.267-0.343-0.304-0.555c-0.001-0.437,0-0.874,0-1.311c0.305,0.009,0.613,0.038,0.915-0.021
		c0.305-0.056,0.601-0.161,0.869-0.315c0.214-0.124,0.413-0.282,0.561-0.481c0.147-0.198,0.237-0.443,0.235-0.692
		C17.087,12.101,17.117,11.996,17.182,11.915z M16.889,12.192c0.004,0.208-0.07,0.412-0.192,0.579
		c-0.156,0.216-0.377,0.375-0.612,0.497c-0.341,0.17-0.721,0.272-1.103,0.262c-0.226-0.002-0.45-0.013-0.675-0.021
		c0.002,0.515-0.001,1.029,0.002,1.544c0.048,0.269,0.194,0.521,0.398,0.702c-0.164,0.108-0.37,0.126-0.56,0.105
		c-0.136-0.015-0.268-0.057-0.396-0.101c-0.186,0.077-0.389,0.129-0.591,0.101c-0.095-0.013-0.188-0.048-0.266-0.105
		c0.165-0.085,0.265-0.253,0.33-0.42c0.042-0.122,0.085-0.247,0.078-0.378c0-0.516,0-1.031,0-1.547
		c0.001-0.199-0.035-0.418-0.18-0.566c0.104-0.073,0.145-0.202,0.167-0.321c0.016-0.086,0.021-0.174,0.02-0.262
		c0-0.516,0.002-1.031-0.005-1.547c-0.033-0.261-0.166-0.531-0.411-0.652c0.131-0.086,0.29-0.125,0.445-0.116
		c0.156,0.008,0.309,0.049,0.451,0.114c0.291-0.078,0.593-0.09,0.892-0.106c0.253-0.011,0.508-0.019,0.761,0.01
		c0.304,0.034,0.611,0.105,0.876,0.263c0.176,0.104,0.331,0.249,0.433,0.428c0.095,0.167,0.146,0.359,0.138,0.552
		c0.003,0.182,0.052,0.377,0.19,0.504C16.941,11.828,16.89,12.016,16.889,12.192z"/>
	<path fill="#EC1C26" d="M15.805,10.878c-0.089-0.127-0.227-0.215-0.374-0.258c-0.19-0.059-0.391-0.046-0.586-0.036
		c-0.144,0.014-0.295,0.027-0.421,0.104c-0.078,0.049-0.121,0.14-0.119,0.231c0,0.534,0,1.067,0,1.601
		c0.013,0.097,0.085,0.175,0.163,0.229c0.164,0.108,0.364,0.133,0.556,0.14c0.23,0.004,0.475-0.041,0.655-0.194
		c0.155-0.131,0.242-0.332,0.252-0.532c-0.001-0.166-0.048-0.346-0.179-0.458c0.134-0.122,0.174-0.313,0.179-0.486
		C15.923,11.097,15.876,10.977,15.805,10.878z M15.684,11.953c0.118,0.232-0.001,0.542-0.23,0.657
		c-0.169,0.085-0.366,0.09-0.552,0.073c-0.115-0.013-0.235-0.036-0.332-0.104c-0.031-0.024-0.07-0.055-0.067-0.099
		c0-0.521,0-1.042,0-1.563c-0.008-0.061,0.06-0.083,0.106-0.096c0.148-0.041,0.303-0.045,0.456-0.047
		c0.146-0.003,0.299,0.013,0.43,0.084c0.131,0.071,0.228,0.209,0.237,0.36c0,0.1-0.015,0.207-0.08,0.288
		c-0.072,0.093-0.18,0.146-0.285,0.194C15.495,11.748,15.621,11.827,15.684,11.953z"/>
	<path fill="#EC1C26" d="M19.417,13.574c0.035-0.172,0.149-0.322,0.297-0.414c0.199-0.125,0.439-0.163,0.671-0.169
		c-0.264-0.213-0.586-0.36-0.925-0.397c-0.258-0.023-0.526,0.02-0.754,0.144c-0.172-0.079-0.363-0.106-0.548-0.138
		c-0.119-0.025-0.24-0.005-0.357,0.018c-0.284,0.059-0.55,0.191-0.775,0.373c0.266,0.007,0.548,0.056,0.757,0.232
		c0.145,0.118,0.228,0.302,0.229,0.488c0,0.479,0,0.958,0,1.437c-0.001,0.146-0.077,0.284-0.188,0.374
		c-0.154,0.129-0.351,0.192-0.546,0.226c0.196,0.035,0.394,0.097,0.548,0.227c0.107,0.091,0.184,0.223,0.187,0.364
		c0,0.483,0,0.967,0,1.451c-0.002,0.208-0.11,0.412-0.285,0.526c-0.204,0.14-0.458,0.185-0.702,0.187
		c0.196,0.159,0.425,0.28,0.669,0.35c0.333,0.094,0.705,0.07,1.013-0.096c0.303,0.163,0.67,0.189,0.999,0.099
		c0.25-0.067,0.482-0.19,0.683-0.353c-0.228-0.003-0.462-0.041-0.661-0.159c-0.145-0.086-0.26-0.226-0.303-0.391
		c-0.035-0.124-0.021-0.254-0.024-0.381c0-0.411,0-0.821,0-1.232c0.003-0.146,0.083-0.28,0.194-0.371
		c0.153-0.125,0.347-0.188,0.54-0.221c-0.193-0.034-0.391-0.096-0.544-0.225c-0.112-0.091-0.189-0.229-0.19-0.375
		c0-0.424,0-0.849,0-1.272C19.401,13.775,19.394,13.673,19.417,13.574z M19.203,15.26c0.021,0.151,0.095,0.299,0.219,0.392
		c0.058,0.046,0.126,0.076,0.196,0.099c-0.149,0.042-0.283,0.146-0.352,0.286c-0.068,0.136-0.082,0.291-0.072,0.439
		c0.001,0.43,0.01,0.858,0.012,1.287c0.002,0.156,0.026,0.316,0.099,0.456c0.077,0.149,0.209,0.27,0.365,0.333
		c0.052,0.023,0.108,0.034,0.162,0.052c-0.153,0.076-0.326,0.111-0.497,0.107c-0.22,0.002-0.454-0.046-0.626-0.191
		c-0.138,0.117-0.318,0.17-0.495,0.187c-0.215,0.019-0.44-0.003-0.632-0.105c0.191-0.035,0.373-0.142,0.483-0.305
		c0.11-0.158,0.148-0.355,0.145-0.546c0-0.416,0-0.831,0-1.247c0.002-0.142,0.003-0.289-0.053-0.422
		c-0.062-0.161-0.204-0.282-0.368-0.33c0.136-0.045,0.26-0.133,0.332-0.258c0.067-0.115,0.092-0.253,0.089-0.386
		c0-0.47,0-0.939,0-1.409c-0.003-0.212-0.067-0.432-0.22-0.585c-0.108-0.114-0.255-0.185-0.409-0.214
		c0.202-0.106,0.438-0.128,0.661-0.103c0.168,0.019,0.336,0.072,0.467,0.182c0.154-0.131,0.361-0.18,0.56-0.19
		c0.195-0.011,0.394,0.021,0.568,0.109c-0.208,0.039-0.406,0.161-0.512,0.349c-0.098,0.164-0.122,0.359-0.119,0.547
		c-0.001,0.365-0.008,0.729-0.011,1.094C19.198,15.011,19.182,15.136,19.203,15.26z"/>
	<path fill="#EC1C26" d="M34.171,5.904h-5.52v13.34h3.46v-4.42h2.18c1.466,0,2.583-0.387,3.35-1.16
		c0.766-0.773,1.15-1.893,1.15-3.36c0-1.44-0.424-2.533-1.271-3.28C36.674,6.277,35.558,5.904,34.171,5.904z M34.721,11.624
		c-0.3,0.267-0.784,0.4-1.45,0.4h-1.16v-3.32h1.18c0.626,0,1.097,0.137,1.41,0.41c0.313,0.273,0.47,0.683,0.47,1.23
		C35.171,10.931,35.021,11.357,34.721,11.624z"/>
	<path fill="#EC1C26" d="M48.01,11.474c-0.76-1.033-1.96-1.55-3.6-1.55c-1.533,0-2.79,0.403-3.77,1.21
		c-0.98,0.807-1.471,2.023-1.471,3.65c0,1.467,0.474,2.633,1.42,3.5c0.947,0.866,2.227,1.3,3.841,1.3c1.106,0,2.066-0.243,2.88-0.73
		c0.813-0.485,1.38-1.276,1.699-2.369h-3.079c-0.2,0.307-0.414,0.526-0.641,0.659c-0.227,0.134-0.526,0.201-0.899,0.201
		c-0.654,0-1.144-0.167-1.471-0.5c-0.326-0.334-0.497-0.848-0.51-1.541h6.74C49.151,13.784,48.771,12.508,48.01,11.474z
		 M42.491,13.444c0.093-0.467,0.3-0.827,0.62-1.08s0.733-0.38,1.24-0.38c0.453,0,0.843,0.13,1.17,0.39
		c0.326,0.26,0.543,0.617,0.649,1.07H42.491z"/>
	<polygon fill="#EC1C26" points="53.791,7.464 50.591,7.464 50.591,10.184 49.531,10.184 49.531,12.844 50.591,12.844 
		50.591,19.244 53.791,19.244 53.791,12.844 55.611,12.844 55.611,10.184 53.791,10.184 	"/>
	<rect x="56.01" y="10.184" fill="#EC1C26" width="3.2" height="9.06"/>
	<path fill="#EC1C26" d="M57.61,4.904c-0.493,0-0.917,0.173-1.27,0.52c-0.354,0.347-0.53,0.773-0.53,1.28
		c0,0.494,0.177,0.917,0.53,1.27c0.353,0.354,0.776,0.53,1.27,0.53c0.507,0,0.934-0.176,1.28-0.53
		c0.347-0.353,0.521-0.776,0.521-1.27c0-0.506-0.174-0.933-0.521-1.28S58.117,4.904,57.61,4.904z"/>
	<polygon fill="#EC1C26" points="64.21,7.464 61.011,7.464 61.011,10.184 59.951,10.184 59.951,12.844 61.011,12.844 61.011,19.244 
		64.21,19.244 64.21,12.844 66.031,12.844 66.031,10.184 64.21,10.184 	"/>
	<rect x="66.43" y="10.184" fill="#EC1C26" width="3.2" height="9.06"/>
	<path fill="#EC1C26" d="M68.03,4.904c-0.493,0-0.917,0.173-1.27,0.52c-0.354,0.347-0.53,0.773-0.53,1.28
		c0,0.494,0.177,0.917,0.53,1.27c0.353,0.354,0.776,0.53,1.27,0.53c0.507,0,0.934-0.176,1.28-0.53
		c0.347-0.353,0.521-0.776,0.521-1.27c0-0.506-0.174-0.933-0.521-1.28S68.537,4.904,68.03,4.904z"/>
	<path fill="#EC1C26" d="M76.15,9.844c-1.601,0-2.91,0.453-3.931,1.36c-1.02,0.907-1.529,2.073-1.529,3.5s0.51,2.594,1.529,3.5
		c1.021,0.907,2.33,1.36,3.931,1.36c1.6,0,2.906-0.453,3.92-1.36c1.013-0.906,1.52-2.073,1.52-3.5s-0.51-2.593-1.529-3.5
		C79.04,10.297,77.736,9.844,76.15,9.844z M77.61,16.154c-0.4,0.407-0.887,0.61-1.46,0.61s-1.063-0.203-1.47-0.61
		c-0.407-0.407-0.61-0.896-0.61-1.47c0-0.587,0.203-1.081,0.61-1.48c0.406-0.4,0.896-0.6,1.47-0.6s1.06,0.2,1.46,0.6
		c0.399,0.4,0.6,0.894,0.6,1.48C78.209,15.258,78.009,15.747,77.61,16.154z"/>
	<path fill="#EC1C26" d="M88.77,9.984c-0.56,0-1.033,0.066-1.42,0.2s-0.753,0.367-1.1,0.7c-0.067,0.067-0.137,0.137-0.21,0.21
		s-0.144,0.15-0.21,0.23v-1.14h-3.2v9.06h3.2v-4.86c0-0.586,0.146-1.043,0.439-1.37s0.707-0.49,1.24-0.49
		c0.547,0,0.93,0.16,1.15,0.48c0.22,0.32,0.33,0.874,0.33,1.66v4.58h3.199v-5.76c0-1.093-0.29-1.95-0.87-2.57
		C90.741,10.294,89.89,9.984,88.77,9.984z"/>
	<path fill="#EC1C26" d="M100.33,14.444c-0.427-0.36-0.894-0.62-1.4-0.78c-0.187-0.053-0.367-0.103-0.54-0.15
		c-0.173-0.046-0.34-0.09-0.5-0.13c-0.293-0.067-0.533-0.146-0.72-0.24c-0.188-0.093-0.28-0.227-0.28-0.4
		c0-0.2,0.09-0.363,0.271-0.49c0.18-0.126,0.416-0.19,0.71-0.19c0.279,0,0.563,0.04,0.85,0.12c0.286,0.08,0.583,0.193,0.89,0.34
		l1.08-2.08c-0.213-0.08-0.413-0.153-0.6-0.22c-0.187-0.066-0.38-0.126-0.58-0.18c-0.267-0.066-0.543-0.113-0.83-0.14
		s-0.597-0.04-0.93-0.04c-1.228,0-2.204,0.29-2.931,0.87c-0.727,0.58-1.09,1.363-1.09,2.35c0,0.813,0.21,1.384,0.63,1.71
		c0.42,0.327,0.884,0.563,1.391,0.71c0.133,0.04,0.267,0.073,0.399,0.101c0.134,0.026,0.261,0.053,0.38,0.08
		c0.347,0.08,0.637,0.173,0.87,0.279c0.233,0.107,0.351,0.287,0.351,0.54c0,0.2-0.094,0.367-0.28,0.5
		c-0.187,0.134-0.427,0.2-0.72,0.2c-0.254,0-0.53-0.04-0.83-0.12s-0.604-0.192-0.91-0.34c-0.134-0.066-0.27-0.137-0.41-0.21
		c-0.14-0.073-0.276-0.156-0.41-0.25l-1.16,2.26c0.147,0.094,0.297,0.177,0.45,0.25s0.304,0.144,0.45,0.21
		c0.44,0.188,0.887,0.327,1.34,0.42c0.453,0.094,0.92,0.141,1.4,0.141c1.307,0,2.35-0.308,3.13-0.92
		c0.78-0.613,1.17-1.434,1.17-2.46C100.969,15.384,100.755,14.803,100.33,14.444z"/>
</g>
</svg>
